<svg width="40" height="40" viewBox="0 0 40 40" fill="none" xmlns="http://www.w3.org/2000/svg">
<g clip-path="url(#clip0_1_9)">
<path d="M20 40C31.0457 40 40 31.0457 40 20C40 8.9543 31.0457 0 20 0C8.9543 0 0 8.9543 0 20C0 31.0457 8.9543 40 20 40Z" fill="#3987F1"/>
<path fill-rule="evenodd" clip-rule="evenodd" d="M14 15C12.8954 15 12 15.8954 12 17V25C12 26.1046 12.8954 27 14 27H26C27.1046 27 28 26.1046 28 25V17C28 15.8954 27.1046 15 26 15H24.4142C24.149 15 23.8946 14.8946 23.7071 14.7071L22.5858 13.5858C22.2107 13.2107 21.702 13 21.1716 13H18.8284C18.298 13 17.7893 13.2107 17.4142 13.5858L16.2929 14.7071C16.1054 14.8946 15.851 15 15.5858 15H14ZM20 24C21.6569 24 23 22.6569 23 21C23 19.3431 21.6569 18 20 18C18.3431 18 17 19.3431 17 21C17 22.6569 18.3431 24 20 24Z" fill="#E6E5E5"/>
</g>
<defs>
<clipPath id="clip0_1_9">
<rect width="40" height="40" fill="white"/>
</clipPath>
</defs>
</svg>
