<svg width="40" height="40" viewBox="0 0 40 40" fill="none" xmlns="http://www.w3.org/2000/svg">
<g clip-path="url(#clip0_1_12)">
<path d="M20 40C31.0457 40 40 31.0457 40 20C40 8.9543 31.0457 0 20 0C8.9543 0 0 8.9543 0 20C0 31.0457 8.9543 40 20 40Z" fill="#3987F1"/>
<path d="M19 12C17.8954 12 17 12.8954 17 14V22C17 23.1046 17.8954 24 19 24H25C26.1046 24 27 23.1046 27 22V16.4142C27 15.8838 26.7893 15.3751 26.4142 15L24 12.5858C23.6249 12.2107 23.1162 12 22.5858 12H19Z" fill="#E6E5E5"/>
<path d="M13 18C13 16.8954 13.8954 16 15 16V26H23C23 27.1046 22.1046 28 21 28H15C13.8954 28 13 27.1046 13 26V18Z" fill="#E6E5E5"/>
</g>
<defs>
<clipPath id="clip0_1_12">
<rect width="40" height="40" fill="white"/>
</clipPath>
</defs>
</svg>
